<svg xmlns="http://www.w3.org/2000/svg" xmlns:xlink="http://www.w3.org/1999/xlink" width="273" height="273" viewBox="0 0 273 273"><defs><style>.a{fill:none;}.b{clip-path:url(#a);}.c{fill:#d7d7d7;}</style><clipPath id="a"><rect class="a" width="129" height="129"/></clipPath></defs><g transform="translate(-319 -30)"><g class="b" transform="translate(463 174)"><g transform="translate(-463 -174)"><rect class="c" width="3" height="3" rx="1" transform="translate(463 300)"/><rect class="c" width="3" height="3" rx="1" transform="translate(463 282)"/><rect class="c" width="3" height="3" rx="1" transform="translate(481 300)"/><rect class="c" width="3" height="3" rx="1" transform="translate(481 282)"/><rect class="c" width="3" height="3" rx="1" transform="translate(463 264)"/><rect class="c" width="3" height="3" rx="1" transform="translate(463 246)"/><rect class="c" width="3" height="3" rx="1" transform="translate(481 264)"/><rect class="c" width="3" height="3" rx="1" transform="translate(481 246)"/><rect class="c" width="3" height="3" rx="1" transform="translate(499 300)"/><rect class="c" width="3" height="3" rx="1" transform="translate(499 282)"/><rect class="c" width="3" height="3" rx="1" transform="translate(517 300)"/><rect class="c" width="3" height="3" rx="1" transform="translate(517 282)"/><rect class="c" width="3" height="3" rx="1" transform="translate(499 264)"/><rect class="c" width="3" height="3" rx="1" transform="translate(499 246)"/><rect class="c" width="3" height="3" rx="1" transform="translate(517 264)"/><rect class="c" width="3" height="3" rx="1" transform="translate(517 246)"/></g><g transform="translate(-463 -246)"><rect class="c" width="3" height="3" rx="1" transform="translate(463 300)"/><rect class="c" width="3" height="3" rx="1" transform="translate(463 282)"/><rect class="c" width="3" height="3" rx="1" transform="translate(481 300)"/><rect class="c" width="3" height="3" rx="1" transform="translate(481 282)"/><rect class="c" width="3" height="3" rx="1" transform="translate(463 264)"/><rect class="c" width="3" height="3" rx="1" transform="translate(463 246)"/><rect class="c" width="3" height="3" rx="1" transform="translate(481 264)"/><rect class="c" width="3" height="3" rx="1" transform="translate(481 246)"/><rect class="c" width="3" height="3" rx="1" transform="translate(499 300)"/><rect class="c" width="3" height="3" rx="1" transform="translate(499 282)"/><rect class="c" width="3" height="3" rx="1" transform="translate(517 300)"/><rect class="c" width="3" height="3" rx="1" transform="translate(517 282)"/><rect class="c" width="3" height="3" rx="1" transform="translate(499 264)"/><rect class="c" width="3" height="3" rx="1" transform="translate(499 246)"/><rect class="c" width="3" height="3" rx="1" transform="translate(517 264)"/><rect class="c" width="3" height="3" rx="1" transform="translate(517 246)"/></g><g transform="translate(-391 -174)"><rect class="c" width="3" height="3" rx="1" transform="translate(463 300)"/><rect class="c" width="3" height="3" rx="1" transform="translate(463 282)"/><rect class="c" width="3" height="3" rx="1" transform="translate(481 300)"/><rect class="c" width="3" height="3" rx="1" transform="translate(481 282)"/><rect class="c" width="3" height="3" rx="1" transform="translate(463 264)"/><rect class="c" width="3" height="3" rx="1" transform="translate(463 246)"/><rect class="c" width="3" height="3" rx="1" transform="translate(481 264)"/><rect class="c" width="3" height="3" rx="1" transform="translate(481 246)"/><rect class="c" width="3" height="3" rx="1" transform="translate(499 300)"/><rect class="c" width="3" height="3" rx="1" transform="translate(499 282)"/><rect class="c" width="3" height="3" rx="1" transform="translate(517 300)"/><rect class="c" width="3" height="3" rx="1" transform="translate(517 282)"/><rect class="c" width="3" height="3" rx="1" transform="translate(499 264)"/><rect class="c" width="3" height="3" rx="1" transform="translate(499 246)"/><rect class="c" width="3" height="3" rx="1" transform="translate(517 264)"/><rect class="c" width="3" height="3" rx="1" transform="translate(517 246)"/></g><g transform="translate(-391 -246)"><rect class="c" width="3" height="3" rx="1" transform="translate(463 300)"/><rect class="c" width="3" height="3" rx="1" transform="translate(463 282)"/><rect class="c" width="3" height="3" rx="1" transform="translate(481 300)"/><rect class="c" width="3" height="3" rx="1" transform="translate(481 282)"/><rect class="c" width="3" height="3" rx="1" transform="translate(463 264)"/><rect class="c" width="3" height="3" rx="1" transform="translate(463 246)"/><rect class="c" width="3" height="3" rx="1" transform="translate(481 264)"/><rect class="c" width="3" height="3" rx="1" transform="translate(481 246)"/><rect class="c" width="3" height="3" rx="1" transform="translate(499 300)"/><rect class="c" width="3" height="3" rx="1" transform="translate(499 282)"/><rect class="c" width="3" height="3" rx="1" transform="translate(517 300)"/><rect class="c" width="3" height="3" rx="1" transform="translate(517 282)"/><rect class="c" width="3" height="3" rx="1" transform="translate(499 264)"/><rect class="c" width="3" height="3" rx="1" transform="translate(499 246)"/><rect class="c" width="3" height="3" rx="1" transform="translate(517 264)"/><rect class="c" width="3" height="3" rx="1" transform="translate(517 246)"/></g></g><g class="b" transform="translate(463 30)"><g transform="translate(-463 -174)"><rect class="c" width="3" height="3" rx="1" transform="translate(463 300)"/><rect class="c" width="3" height="3" rx="1" transform="translate(463 282)"/><rect class="c" width="3" height="3" rx="1" transform="translate(481 300)"/><rect class="c" width="3" height="3" rx="1" transform="translate(481 282)"/><rect class="c" width="3" height="3" rx="1" transform="translate(463 264)"/><rect class="c" width="3" height="3" rx="1" transform="translate(463 246)"/><rect class="c" width="3" height="3" rx="1" transform="translate(481 264)"/><rect class="c" width="3" height="3" rx="1" transform="translate(481 246)"/><rect class="c" width="3" height="3" rx="1" transform="translate(499 300)"/><rect class="c" width="3" height="3" rx="1" transform="translate(499 282)"/><rect class="c" width="3" height="3" rx="1" transform="translate(517 300)"/><rect class="c" width="3" height="3" rx="1" transform="translate(517 282)"/><rect class="c" width="3" height="3" rx="1" transform="translate(499 264)"/><rect class="c" width="3" height="3" rx="1" transform="translate(499 246)"/><rect class="c" width="3" height="3" rx="1" transform="translate(517 264)"/><rect class="c" width="3" height="3" rx="1" transform="translate(517 246)"/></g><g transform="translate(-463 -246)"><rect class="c" width="3" height="3" rx="1" transform="translate(463 300)"/><rect class="c" width="3" height="3" rx="1" transform="translate(463 282)"/><rect class="c" width="3" height="3" rx="1" transform="translate(481 300)"/><rect class="c" width="3" height="3" rx="1" transform="translate(481 282)"/><rect class="c" width="3" height="3" rx="1" transform="translate(463 264)"/><rect class="c" width="3" height="3" rx="1" transform="translate(463 246)"/><rect class="c" width="3" height="3" rx="1" transform="translate(481 264)"/><rect class="c" width="3" height="3" rx="1" transform="translate(481 246)"/><rect class="c" width="3" height="3" rx="1" transform="translate(499 300)"/><rect class="c" width="3" height="3" rx="1" transform="translate(499 282)"/><rect class="c" width="3" height="3" rx="1" transform="translate(517 300)"/><rect class="c" width="3" height="3" rx="1" transform="translate(517 282)"/><rect class="c" width="3" height="3" rx="1" transform="translate(499 264)"/><rect class="c" width="3" height="3" rx="1" transform="translate(499 246)"/><rect class="c" width="3" height="3" rx="1" transform="translate(517 264)"/><rect class="c" width="3" height="3" rx="1" transform="translate(517 246)"/></g><g transform="translate(-391 -174)"><rect class="c" width="3" height="3" rx="1" transform="translate(463 300)"/><rect class="c" width="3" height="3" rx="1" transform="translate(463 282)"/><rect class="c" width="3" height="3" rx="1" transform="translate(481 300)"/><rect class="c" width="3" height="3" rx="1" transform="translate(481 282)"/><rect class="c" width="3" height="3" rx="1" transform="translate(463 264)"/><rect class="c" width="3" height="3" rx="1" transform="translate(463 246)"/><rect class="c" width="3" height="3" rx="1" transform="translate(481 264)"/><rect class="c" width="3" height="3" rx="1" transform="translate(481 246)"/><rect class="c" width="3" height="3" rx="1" transform="translate(499 300)"/><rect class="c" width="3" height="3" rx="1" transform="translate(499 282)"/><rect class="c" width="3" height="3" rx="1" transform="translate(517 300)"/><rect class="c" width="3" height="3" rx="1" transform="translate(517 282)"/><rect class="c" width="3" height="3" rx="1" transform="translate(499 264)"/><rect class="c" width="3" height="3" rx="1" transform="translate(499 246)"/><rect class="c" width="3" height="3" rx="1" transform="translate(517 264)"/><rect class="c" width="3" height="3" rx="1" transform="translate(517 246)"/></g><g transform="translate(-391 -246)"><rect class="c" width="3" height="3" rx="1" transform="translate(463 300)"/><rect class="c" width="3" height="3" rx="1" transform="translate(463 282)"/><rect class="c" width="3" height="3" rx="1" transform="translate(481 300)"/><rect class="c" width="3" height="3" rx="1" transform="translate(481 282)"/><rect class="c" width="3" height="3" rx="1" transform="translate(463 264)"/><rect class="c" width="3" height="3" rx="1" transform="translate(463 246)"/><rect class="c" width="3" height="3" rx="1" transform="translate(481 264)"/><rect class="c" width="3" height="3" rx="1" transform="translate(481 246)"/><rect class="c" width="3" height="3" rx="1" transform="translate(499 300)"/><rect class="c" width="3" height="3" rx="1" transform="translate(499 282)"/><rect class="c" width="3" height="3" rx="1" transform="translate(517 300)"/><rect class="c" width="3" height="3" rx="1" transform="translate(517 282)"/><rect class="c" width="3" height="3" rx="1" transform="translate(499 264)"/><rect class="c" width="3" height="3" rx="1" transform="translate(499 246)"/><rect class="c" width="3" height="3" rx="1" transform="translate(517 264)"/><rect class="c" width="3" height="3" rx="1" transform="translate(517 246)"/></g></g><g class="b" transform="translate(319 174)"><g transform="translate(-463 -174)"><rect class="c" width="3" height="3" rx="1" transform="translate(463 300)"/><rect class="c" width="3" height="3" rx="1" transform="translate(463 282)"/><rect class="c" width="3" height="3" rx="1" transform="translate(481 300)"/><rect class="c" width="3" height="3" rx="1" transform="translate(481 282)"/><rect class="c" width="3" height="3" rx="1" transform="translate(463 264)"/><rect class="c" width="3" height="3" rx="1" transform="translate(463 246)"/><rect class="c" width="3" height="3" rx="1" transform="translate(481 264)"/><rect class="c" width="3" height="3" rx="1" transform="translate(481 246)"/><rect class="c" width="3" height="3" rx="1" transform="translate(499 300)"/><rect class="c" width="3" height="3" rx="1" transform="translate(499 282)"/><rect class="c" width="3" height="3" rx="1" transform="translate(517 300)"/><rect class="c" width="3" height="3" rx="1" transform="translate(517 282)"/><rect class="c" width="3" height="3" rx="1" transform="translate(499 264)"/><rect class="c" width="3" height="3" rx="1" transform="translate(499 246)"/><rect class="c" width="3" height="3" rx="1" transform="translate(517 264)"/><rect class="c" width="3" height="3" rx="1" transform="translate(517 246)"/></g><g transform="translate(-463 -246)"><rect class="c" width="3" height="3" rx="1" transform="translate(463 300)"/><rect class="c" width="3" height="3" rx="1" transform="translate(463 282)"/><rect class="c" width="3" height="3" rx="1" transform="translate(481 300)"/><rect class="c" width="3" height="3" rx="1" transform="translate(481 282)"/><rect class="c" width="3" height="3" rx="1" transform="translate(463 264)"/><rect class="c" width="3" height="3" rx="1" transform="translate(463 246)"/><rect class="c" width="3" height="3" rx="1" transform="translate(481 264)"/><rect class="c" width="3" height="3" rx="1" transform="translate(481 246)"/><rect class="c" width="3" height="3" rx="1" transform="translate(499 300)"/><rect class="c" width="3" height="3" rx="1" transform="translate(499 282)"/><rect class="c" width="3" height="3" rx="1" transform="translate(517 300)"/><rect class="c" width="3" height="3" rx="1" transform="translate(517 282)"/><rect class="c" width="3" height="3" rx="1" transform="translate(499 264)"/><rect class="c" width="3" height="3" rx="1" transform="translate(499 246)"/><rect class="c" width="3" height="3" rx="1" transform="translate(517 264)"/><rect class="c" width="3" height="3" rx="1" transform="translate(517 246)"/></g><g transform="translate(-391 -174)"><rect class="c" width="3" height="3" rx="1" transform="translate(463 300)"/><rect class="c" width="3" height="3" rx="1" transform="translate(463 282)"/><rect class="c" width="3" height="3" rx="1" transform="translate(481 300)"/><rect class="c" width="3" height="3" rx="1" transform="translate(481 282)"/><rect class="c" width="3" height="3" rx="1" transform="translate(463 264)"/><rect class="c" width="3" height="3" rx="1" transform="translate(463 246)"/><rect class="c" width="3" height="3" rx="1" transform="translate(481 264)"/><rect class="c" width="3" height="3" rx="1" transform="translate(481 246)"/><rect class="c" width="3" height="3" rx="1" transform="translate(499 300)"/><rect class="c" width="3" height="3" rx="1" transform="translate(499 282)"/><rect class="c" width="3" height="3" rx="1" transform="translate(517 300)"/><rect class="c" width="3" height="3" rx="1" transform="translate(517 282)"/><rect class="c" width="3" height="3" rx="1" transform="translate(499 264)"/><rect class="c" width="3" height="3" rx="1" transform="translate(499 246)"/><rect class="c" width="3" height="3" rx="1" transform="translate(517 264)"/><rect class="c" width="3" height="3" rx="1" transform="translate(517 246)"/></g><g transform="translate(-391 -246)"><rect class="c" width="3" height="3" rx="1" transform="translate(463 300)"/><rect class="c" width="3" height="3" rx="1" transform="translate(463 282)"/><rect class="c" width="3" height="3" rx="1" transform="translate(481 300)"/><rect class="c" width="3" height="3" rx="1" transform="translate(481 282)"/><rect class="c" width="3" height="3" rx="1" transform="translate(463 264)"/><rect class="c" width="3" height="3" rx="1" transform="translate(463 246)"/><rect class="c" width="3" height="3" rx="1" transform="translate(481 264)"/><rect class="c" width="3" height="3" rx="1" transform="translate(481 246)"/><rect class="c" width="3" height="3" rx="1" transform="translate(499 300)"/><rect class="c" width="3" height="3" rx="1" transform="translate(499 282)"/><rect class="c" width="3" height="3" rx="1" transform="translate(517 300)"/><rect class="c" width="3" height="3" rx="1" transform="translate(517 282)"/><rect class="c" width="3" height="3" rx="1" transform="translate(499 264)"/><rect class="c" width="3" height="3" rx="1" transform="translate(499 246)"/><rect class="c" width="3" height="3" rx="1" transform="translate(517 264)"/><rect class="c" width="3" height="3" rx="1" transform="translate(517 246)"/></g></g><g class="b" transform="translate(319 30)"><g transform="translate(-463 -174)"><rect class="c" width="3" height="3" rx="1" transform="translate(463 300)"/><rect class="c" width="3" height="3" rx="1" transform="translate(463 282)"/><rect class="c" width="3" height="3" rx="1" transform="translate(481 300)"/><rect class="c" width="3" height="3" rx="1" transform="translate(481 282)"/><rect class="c" width="3" height="3" rx="1" transform="translate(463 264)"/><rect class="c" width="3" height="3" rx="1" transform="translate(463 246)"/><rect class="c" width="3" height="3" rx="1" transform="translate(481 264)"/><rect class="c" width="3" height="3" rx="1" transform="translate(481 246)"/><rect class="c" width="3" height="3" rx="1" transform="translate(499 300)"/><rect class="c" width="3" height="3" rx="1" transform="translate(499 282)"/><rect class="c" width="3" height="3" rx="1" transform="translate(517 300)"/><rect class="c" width="3" height="3" rx="1" transform="translate(517 282)"/><rect class="c" width="3" height="3" rx="1" transform="translate(499 264)"/><rect class="c" width="3" height="3" rx="1" transform="translate(499 246)"/><rect class="c" width="3" height="3" rx="1" transform="translate(517 264)"/><rect class="c" width="3" height="3" rx="1" transform="translate(517 246)"/></g><g transform="translate(-463 -246)"><rect class="c" width="3" height="3" rx="1" transform="translate(463 300)"/><rect class="c" width="3" height="3" rx="1" transform="translate(463 282)"/><rect class="c" width="3" height="3" rx="1" transform="translate(481 300)"/><rect class="c" width="3" height="3" rx="1" transform="translate(481 282)"/><rect class="c" width="3" height="3" rx="1" transform="translate(463 264)"/><rect class="c" width="3" height="3" rx="1" transform="translate(463 246)"/><rect class="c" width="3" height="3" rx="1" transform="translate(481 264)"/><rect class="c" width="3" height="3" rx="1" transform="translate(481 246)"/><rect class="c" width="3" height="3" rx="1" transform="translate(499 300)"/><rect class="c" width="3" height="3" rx="1" transform="translate(499 282)"/><rect class="c" width="3" height="3" rx="1" transform="translate(517 300)"/><rect class="c" width="3" height="3" rx="1" transform="translate(517 282)"/><rect class="c" width="3" height="3" rx="1" transform="translate(499 264)"/><rect class="c" width="3" height="3" rx="1" transform="translate(499 246)"/><rect class="c" width="3" height="3" rx="1" transform="translate(517 264)"/><rect class="c" width="3" height="3" rx="1" transform="translate(517 246)"/></g><g transform="translate(-391 -174)"><rect class="c" width="3" height="3" rx="1" transform="translate(463 300)"/><rect class="c" width="3" height="3" rx="1" transform="translate(463 282)"/><rect class="c" width="3" height="3" rx="1" transform="translate(481 300)"/><rect class="c" width="3" height="3" rx="1" transform="translate(481 282)"/><rect class="c" width="3" height="3" rx="1" transform="translate(463 264)"/><rect class="c" width="3" height="3" rx="1" transform="translate(463 246)"/><rect class="c" width="3" height="3" rx="1" transform="translate(481 264)"/><rect class="c" width="3" height="3" rx="1" transform="translate(481 246)"/><rect class="c" width="3" height="3" rx="1" transform="translate(499 300)"/><rect class="c" width="3" height="3" rx="1" transform="translate(499 282)"/><rect class="c" width="3" height="3" rx="1" transform="translate(517 300)"/><rect class="c" width="3" height="3" rx="1" transform="translate(517 282)"/><rect class="c" width="3" height="3" rx="1" transform="translate(499 264)"/><rect class="c" width="3" height="3" rx="1" transform="translate(499 246)"/><rect class="c" width="3" height="3" rx="1" transform="translate(517 264)"/><rect class="c" width="3" height="3" rx="1" transform="translate(517 246)"/></g><g transform="translate(-391 -246)"><rect class="c" width="3" height="3" rx="1" transform="translate(463 300)"/><rect class="c" width="3" height="3" rx="1" transform="translate(463 282)"/><rect class="c" width="3" height="3" rx="1" transform="translate(481 300)"/><rect class="c" width="3" height="3" rx="1" transform="translate(481 282)"/><rect class="c" width="3" height="3" rx="1" transform="translate(463 264)"/><rect class="c" width="3" height="3" rx="1" transform="translate(463 246)"/><rect class="c" width="3" height="3" rx="1" transform="translate(481 264)"/><rect class="c" width="3" height="3" rx="1" transform="translate(481 246)"/><rect class="c" width="3" height="3" rx="1" transform="translate(499 300)"/><rect class="c" width="3" height="3" rx="1" transform="translate(499 282)"/><rect class="c" width="3" height="3" rx="1" transform="translate(517 300)"/><rect class="c" width="3" height="3" rx="1" transform="translate(517 282)"/><rect class="c" width="3" height="3" rx="1" transform="translate(499 264)"/><rect class="c" width="3" height="3" rx="1" transform="translate(499 246)"/><rect class="c" width="3" height="3" rx="1" transform="translate(517 264)"/><rect class="c" width="3" height="3" rx="1" transform="translate(517 246)"/></g></g></g></svg>